<?xml version="1.0" standalone="no"?>
<!DOCTYPE svg PUBLIC "-//W3C//DTD SVG 20010904//EN"
 "http://www.w3.org/TR/2001/REC-SVG-20010904/DTD/svg10.dtd">
<svg version="1.0" xmlns="http://www.w3.org/2000/svg"
 width="204.000000pt" height="192.000000pt" viewBox="0 0 204.000000 192.000000"
 preserveAspectRatio="xMidYMid meet">
<g transform="translate(0.000000,192.000000) scale(0.100000,-0.100000)"
fill="#000000" stroke="none">
<path d="M260 1115 l0 -235 218 0 217 0 125 -126 c69 -69 137 -132 152 -140
22 -11 89 -14 349 -14 l321 0 84 82 c62 60 84 88 84 107 0 19 -50 76 -225 250
l-224 225 -65 -64 -64 -65 176 -177 177 -178 -258 0 c-202 0 -264 3 -285 14
-15 8 -76 65 -136 128 -60 62 -118 118 -130 125 -14 8 -74 12 -178 13 l-158 0
0 53 0 52 170 -2 c136 -2 176 -6 202 -19 18 -9 74 -58 125 -108 l92 -91 64 62
64 62 -111 109 c-116 112 -167 145 -256 162 -26 5 -156 9 -289 9 l-241 0 0
-234z m559 182 c11 -9 13 -9 8 0 -5 8 1 8 19 -2 15 -8 32 -11 37 -8 6 3 7 1 4
-4 -4 -6 10 -18 31 -26 21 -9 49 -29 62 -45 14 -17 29 -28 34 -25 5 3 6 1 2
-5 -4 -6 3 -19 15 -29 27 -22 49 -44 70 -70 14 -18 13 -22 -28 -63 l-43 -43
-94 94 c-117 118 -144 128 -347 128 -157 0 -164 -3 -173 -82 -5 -38 -2 -52 13
-68 18 -19 28 -20 169 -17 83 2 148 0 146 -3 -5 -9 26 -20 37 -13 5 3 8 0 7
-8 -2 -7 3 -12 10 -10 8 1 11 -2 7 -8 -3 -5 -2 -10 3 -10 5 0 15 -11 22 -25 7
-14 17 -25 22 -25 5 0 6 6 2 13 -4 7 -3 9 2 4 5 -5 9 -12 9 -16 0 -14 50 -61
64 -61 8 0 12 -3 8 -6 -7 -7 43 -59 89 -91 28 -20 42 -21 297 -22 176 -1 266
3 262 9 -3 6 -1 10 4 10 31 0 0 44 -101 145 -197 198 -225 233 -196 251 7 4 8
2 4 -4 -4 -7 -2 -12 3 -12 10 0 15 14 12 33 -1 5 3 6 7 3 5 -3 18 4 28 15 18
20 19 18 153 -118 74 -76 139 -137 144 -135 5 1 6 -1 3 -6 -3 -5 13 -25 34
-45 22 -20 40 -33 40 -29 0 4 9 -7 19 -24 11 -18 24 -35 30 -38 22 -14 9 -37
-59 -103 l-70 -68 -316 -5 c-174 -3 -318 -2 -321 3 -2 4 -9 5 -14 2 -5 -4 -9
-1 -9 4 0 6 -7 11 -16 11 -8 0 -13 4 -10 9 3 5 -6 17 -21 26 -15 10 -69 61
-121 114 -51 53 -97 96 -100 97 -4 0 -20 6 -37 13 -20 9 -83 11 -206 9 l-177
-3 -1 195 c0 107 3 197 8 200 5 3 121 4 257 2 176 -2 252 -6 263 -15z"/>
<path d="M1025 1271 c-3 -5 -2 -12 3 -15 5 -3 9 1 9 9 0 17 -3 19 -12 6z"/>
<path d="M1293 985 c0 -8 4 -12 9 -9 5 3 6 10 3 15 -9 13 -12 11 -12 -6z"/>
<path d="M1389 903 c-13 -16 -12 -17 4 -4 16 13 21 21 13 21 -2 0 -10 -8 -17
-17z"/>
<path d="M812 671 c-11 -7 -11 -9 0 -14 9 -3 15 1 15 9 0 8 -1 14 -1 14 -1 0
-7 -4 -14 -9z"/>
</g>
</svg>
